<svg width="64" height="49" viewBox="0 0 64 49" fill="none" xmlns="http://www.w3.org/2000/svg">
<path d="M0 14.049C0 4.11111 4.4388 0.129484 12.4751 0L13.3454 4.69379C8.70354 5.2441 6.44062 7.93089 6.73073 12.1715H10.9084V24.1164H0V14.049ZM17.117 14.049C17.117 4.11111 21.5558 0.129484 29.592 0L30.4624 4.69379C25.8205 5.2441 23.5286 7.93089 23.8477 12.1715H28.0254V24.1164H17.117V14.049ZM46.883 34.1838C46.883 44.1216 42.4442 48.1033 34.408 48.2328L33.5666 43.539C38.2085 43.021 40.5005 40.3019 40.1813 36.0936H35.9746V24.1164H46.883V34.1838ZM64 34.1838C64 44.1216 59.5612 48.1033 51.5249 48.2328L50.6546 43.539C55.2965 43.021 57.5884 40.3019 57.2693 36.0936H53.0916V24.1164H64V34.1838Z" fill="#6D64D0"/>
</svg>
